<svg xmlns="http://www.w3.org/2000/svg" data-name="Layer 1 copy 3" viewBox="0 0 48 48" id="quran"><polygon fill="#694d37" points="22.43 34.32 14.06 39.6 14.86 33.42 22.43 34.32"></polygon><polygon fill="#694d37" points="33.95 39.6 25.56 34.31 33.15 33.42 33.95 39.6"></polygon><polygon fill="#a37e4e" points="47.5 31.28 47.33 31.3 23.96 34.05 .67 31.3 .5 31.28 7.72 12.93 10.32 13.19 37.68 13.19 40.28 12.93 47.5 31.28"></polygon><polygon fill="#bd9c69" points="47.5 31.28 47.5 31.72 33.66 33.35 32.66 33.47 26.35 34.22 24.77 34.4 23.96 34.5 23.22 34.41 21.64 34.23 15.33 33.48 14.34 33.36 .5 31.72 .5 31.28 14.4 32.92 15.39 33.04 22.24 33.85 23.82 34.03 23.96 34.05 24.17 34.03 25.75 33.84 32.61 33.03 33.6 32.92 47.5 31.28"></polygon><path fill="#3c7e46" d="M43.883,28.735l-6.3-17.282A.526.526,0,0,0,37,11.114l-13.1,2.35L11,11.114a.529.529,0,0,0-.59.334L3.967,28.594a.477.477,0,0,0,.39.646c2.568.3,12.514,1.447,14.785,1.779a4.321,4.321,0,0,1,2.993,1.629l.292.482h3.146l.292-.482a4.321,4.321,0,0,1,2.993-1.629c2.27-.332,12.08-1.373,14.629-1.643A.476.476,0,0,0,43.883,28.735Z"></path><path fill="#d9d9d9" d="M24,12.87V29.82a5.6,5.6,0,0,0-3.92-2.1c-2.82-.39-14.32-1.51-14.32-1.51L11.8,8.93s7.56,1.05,9.33,1.45A5.167,5.167,0,0,1,24,12.87Z"></path><path fill="#ececec" d="M42.24,26.21s-11.5,1.12-14.32,1.51A5.6,5.6,0,0,0,24,29.82V12.87a5.167,5.167,0,0,1,2.87-2.49c1.77-.4,9.33-1.45,9.33-1.45Z"></path><path fill="#b1b1b0" d="M42.24,26.21v2.31s-10.86,1.12-13.53,1.51a5.26,5.26,0,0,0-3.7,2.1H22.99a5.26,5.26,0,0,0-3.7-2.1c-2.67-.39-13.53-1.51-13.53-1.51V26.21s11.5,1.12,14.32,1.51A5.6,5.6,0,0,1,24,29.82a5.6,5.6,0,0,1,3.92-2.1C30.74,27.33,42.24,26.21,42.24,26.21Z"></path><path fill="#6f6f6e" d="M33.123 13.049a.375.375 0 0 1-.068-.743l1.5-.277a.375.375 0 0 1 .137.738l-1.5.276A.391.391 0 0 1 33.123 13.049zM26.634 14.25a.375.375 0 0 1-.069-.744L31 12.685a.371.371 0 0 1 .437.3.374.374 0 0 1-.3.437l-4.438.821A.321.321 0 0 1 26.634 14.25zM31.435 24.434a.375.375 0 0 1-.063-.745l6.575-1.111a.375.375 0 1 1 .125.739L31.5 24.429A.331.331 0 0 1 31.435 24.434zM26.8 25.218a.375.375 0 0 1-.063-.745l2.53-.428a.371.371 0 0 1 .432.308.375.375 0 0 1-.307.432l-2.53.427A.334.334 0 0 1 26.8 25.218zM33.684 20.345a.375.375 0 0 1-.062-.745l3.2-.532a.375.375 0 1 1 .123.74l-3.2.532A.32.32 0 0 1 33.684 20.345zM26.8 21.49a.375.375 0 0 1-.062-.745l4.833-.8a.375.375 0 1 1 .123.74l-4.833.8A.32.32 0 0 1 26.8 21.49zM30.432 17.191a.375.375 0 0 1-.062-.745l5.262-.876a.375.375 0 0 1 .123.74l-5.262.876A.43.43 0 0 1 30.432 17.191zM26.8 17.8a.375.375 0 0 1-.062-.745l1.533-.256a.371.371 0 0 1 .432.309.376.376 0 0 1-.309.432l-1.533.255A.43.43 0 0 1 26.8 17.8zM14.877 13.049a.391.391 0 0 1-.068-.006l-1.5-.276a.375.375 0 0 1 .137-.738l1.5.277a.375.375 0 0 1-.068.743zM21.366 14.25a.321.321 0 0 1-.068-.007l-4.438-.821A.375.375 0 0 1 17 12.685l4.438.821a.375.375 0 0 1-.069.744zM16.565 24.434a.331.331 0 0 1-.062-.005L9.928 23.317a.376.376 0 0 1-.308-.432.367.367 0 0 1 .433-.307l6.575 1.111a.375.375 0 0 1-.063.745zM21.2 25.218a.334.334 0 0 1-.062-.006l-2.53-.427a.375.375 0 0 1-.307-.432.369.369 0 0 1 .432-.308l2.53.428a.375.375 0 0 1-.063.745zM14.316 20.345a.32.32 0 0 1-.061 0l-3.2-.532a.376.376 0 0 1-.309-.432.369.369 0 0 1 .432-.308l3.2.532a.375.375 0 0 1-.062.745zM21.2 21.49a.32.32 0 0 1-.061 0l-4.833-.8a.375.375 0 0 1-.309-.431.368.368 0 0 1 .432-.309l4.833.8a.375.375 0 0 1-.062.745zM17.568 17.191a.43.43 0 0 1-.061 0l-5.262-.876a.374.374 0 0 1-.308-.432.368.368 0 0 1 .431-.308l5.262.876a.375.375 0 0 1-.062.745zM21.2 17.8a.43.43 0 0 1-.061-.005L19.6 17.535a.376.376 0 0 1 .123-.741l1.533.256a.375.375 0 0 1-.062.745z"></path><path fill="#7f6b51" d="M23.22 34.41L12.14 41.4a.5.5 0 0 1-.26.08.482.482 0 0 1-.42-.23.5.5 0 0 1 .15-.69l1.98-1.26.75-5.94.99.12-.64 5.13 6.95-4.38zM36.54 41.25a.482.482 0 0 1-.42.23.5.5 0 0 1-.26-.08l-11.09-7 1.58-.18 6.96 4.39-.65-5.14 1-.12.75 5.96 1.98 1.25A.5.5 0 0 1 36.54 41.25z"></path></svg>